# xmcd
#
# Track frame offsets: 
#        150
#        18073
#        39006
#        93074
#        144247
#        166279
#        200939
#        229489
#        260461
#        270544
#
# Disc length: 3834 seconds
#
# Revision: 0
# Processed by: cddbd v1.5.2PL0 Copyright (c) Steve Scherf et al.
# Submitted via: ExactAudioCopy v0.95b3
#
DISCID=7a0ef80a
DTITLE=Jimi Hendrix  - Jimi Plays Berkeley - The 1st Show - Masters  F
DTITLE=LAC
DYEAR=1900
DGENRE=
TTITLE0=Fire
TTITLE1=Johnny B. Goode
TTITLE2=Hear My Train A Comin'
TTITLE3=Machine Gun
TTITLE4=Freedom
TTITLE5=Red House
TTITLE6=Message To Love
TTITLE7=Ezy Rider
TTITLE8=Star Spangled Banner
TTITLE9=Purple Haze
EXTD=
EXTT0=
EXTT1=
EXTT2=
EXTT3=
EXTT4=
EXTT5=
EXTT6=
EXTT7=
EXTT8=
EXTT9=
PLAYORDER=
